<svg aria-hidden="true" focusable="false" width="48" height="30" xmlns="http://www.w3.org/2000/svg">
    <g fill="none" fill-rule="evenodd">
        <rect stroke="#8A0D1E" fill="#8A0D1E" x=".5" y=".5" width="47" height="29" rx="2"/>
        <path d="M0 14.07h2.306l.52-1.242H3.99l.518 1.242h4.537v-.95l.405.955h2.355l.405-.969v.964h11.274l-.005-2.04h.218c.153.006.197.02.197.27v1.77h5.831v-.474c.47.25 1.202.474 2.165.474h2.453l.525-1.242h1.164l.513 1.242h4.728v-1.18l.716 1.18h3.788V6.267h-3.75v.922l-.524-.922h-3.847v.922l-.482-.922h-5.197c-.87 0-1.634.12-2.252.456v-.456H26.14v.456c-.393-.346-.928-.456-1.524-.456h-13.1l-.88 2.015-.902-2.015H5.607v.922l-.454-.922H1.634L0 9.977v4.093zm14.57-1.099h-1.383l-.005-4.382-1.957 4.382H10.04L8.078 8.586v4.385H5.334l-.519-1.247h-2.81l-.524 1.247H.016l2.416-5.595h2.005l2.295 5.298V7.376h2.203l1.766 3.796 1.622-3.796h2.247v5.595zM4.328 10.557l-.924-2.23-.918 2.23h1.842zm15.756 2.414h-4.508V7.376h4.508v1.166h-3.159V9.55h3.083v1.147h-3.083v1.117h3.159v1.157zm6.356-4.088c0 .892-.6 1.353-.95 1.492.294.111.547.308.667.47.19.28.223.528.223 1.027v1.1H25.02l-.005-.706c0-.337.032-.82-.213-1.09-.197-.197-.498-.24-.984-.24H22.37v2.035h-1.35V7.376h3.104c.69 0 1.198.018 1.634.268.427.25.683.615.683 1.24zm-1.765.786c-.185.112-.404.115-.667.115h-1.64V8.542h1.662c.235 0 .48.01.64.1.175.082.283.255.283.495 0 .245-.103.441-.278.532zm3.925 3.302h-1.377V7.376H28.6v5.595zm15.974 0h-1.912l-2.558-4.199v4.2h-2.749l-.525-1.248h-2.803l-.51 1.247h-1.579c-.656 0-1.486-.143-1.956-.618-.475-.475-.721-1.119-.721-2.136 0-.83.147-1.589.727-2.188.436-.447 1.12-.653 2.05-.653h1.306v1.2h-1.28c-.492 0-.77.072-1.037.33-.23.236-.388.682-.388 1.268 0 .6.12 1.032.37 1.314.208.222.586.289.941.289h.606l1.902-4.4h2.022l2.285 5.292V7.377h2.055l2.372 3.896V7.377h1.382v5.594zm-8.204-2.414l-.934-2.23-.928 2.23h1.862zM48 21.88c-.328.475-.967.716-1.831.716h-2.606v-1.2h2.595c.258 0 .438-.034.546-.139a.49.49 0 0 0 .16-.365.458.458 0 0 0-.165-.37c-.098-.085-.24-.124-.475-.124-1.268-.043-2.848.039-2.848-1.732 0-.812.52-1.666 1.936-1.666H48v-1.114h-2.498c-.753 0-1.3.18-1.688.457v-.457h-3.695c-.59 0-1.284.145-1.612.457v-.457h-6.596v.457c-.525-.375-1.411-.457-1.82-.457H25.74v.457c-.415-.398-1.339-.457-1.902-.457h-4.87l-1.114 1.195-1.044-1.195H9.536v7.81h7.137l1.149-1.215 1.081 1.214 4.4.004v-1.837h.432c.584.009 1.273-.014 1.88-.274v2.107h3.629V21.66h.175c.223 0 .245.009.245.23v1.805h11.024c.7 0 1.431-.178 1.836-.5v.5h3.497c.728 0 1.438-.101 1.979-.36V21.88zm-21.855-3.037c0 1.555-1.17 1.876-2.35 1.876h-1.684v1.877h-2.623l-1.661-1.853-1.727 1.853h-5.345V17h5.427l1.66 1.834L19.56 17h4.312c1.07 0 2.274.293 2.274 1.843zM15.417 21.43h-3.318v-1.114h2.962v-1.142H12.1v-1.017h3.383l1.476 1.63-1.541 1.643zm5.35.657l-2.072-2.28 2.072-2.207v4.487zm3.088-2.505h-1.744v-1.425h1.76c.487 0 .825.197.825.686 0 .484-.322.74-.84.74zM32.96 17h4.504v1.157h-3.16v1.017h3.083v1.142h-3.083v1.114l3.16.005v1.161H32.96V17zm-1.705 2.995c.3.11.546.307.661.47.19.273.218.528.224 1.022v1.109h-1.355v-.7c0-.337.033-.835-.218-1.096-.197-.2-.498-.248-.99-.248h-1.442v2.044h-1.356V17h3.115c.683 0 1.181.03 1.624.264.426.255.694.604.694 1.242 0 .894-.602 1.35-.957 1.49zm-.815-.696c-.18.106-.404.115-.666.115h-1.64v-1.257h1.662c.24 0 .48.005.644.101.175.09.28.264.28.504s-.105.432-.28.537zm12.177.345c.263.27.404.61.404 1.186 0 1.204-.76 1.766-2.12 1.766h-2.629v-1.2h2.618c.256 0 .438-.034.551-.139a.494.494 0 0 0 .16-.365.478.478 0 0 0-.165-.37c-.103-.085-.245-.124-.48-.124-1.262-.043-2.843.039-2.843-1.732 0-.812.515-1.666 1.93-1.666h2.705v1.19h-2.476c-.245 0-.405.01-.54.102-.148.09-.203.225-.203.403 0 .21.126.354.295.416.143.05.296.064.526.064l.726.02c.733.017 1.235.143 1.541.45zM48 18.191h-2.46c-.245 0-.408.009-.546.1-.142.091-.197.226-.197.403 0 .211.12.355.295.417.143.05.296.064.52.064l.732.019c.738.018 1.23.144 1.53.45.056.043.088.091.126.139v-1.592z" fill="#FFF" fill-rule="nonzero"/>
    </g>
</svg>